<?xml version="1.0" standalone="no"?>
<!DOCTYPE svg PUBLIC "-//W3C//DTD SVG 20010904//EN"
 "http://www.w3.org/TR/2001/REC-SVG-20010904/DTD/svg10.dtd">
<svg version="1.0" xmlns="http://www.w3.org/2000/svg"
 width="1578.000000pt" height="1274.000000pt" viewBox="0 0 1578.000000 1274.000000"
 preserveAspectRatio="xMidYMid meet">

<g transform="translate(0.000000,1274.000000) scale(0.100000,-0.100000)"
fill="#000000" stroke="none">
<path d="M4850 7996 c-30 -7 -69 -20 -87 -29 -65 -34 -63 -21 -63 -462 -1
-220 -5 -420 -9 -444 -10 -52 -35 -75 -71 -66 -54 13 -55 15 -60 308 -5 292
-6 295 -61 341 -44 37 -94 56 -164 63 -127 12 -237 -35 -278 -117 -21 -43 -22
-56 -22 -308 0 -249 -1 -264 -19 -278 -30 -21 -89 -18 -112 7 -15 16 -20 42
-24 121 -5 99 -5 101 -39 128 -102 86 -388 72 -436 -21 -8 -15 -18 -66 -21
-114 -11 -141 28 -129 -438 -135 -352 -4 -397 -7 -412 -22 -24 -24 -32 -208
-40 -893 -7 -542 -6 -571 11 -585 15 -13 77 -15 394 -17 207 -1 716 -7 1131
-13 732 -11 756 -12 775 -31 22 -22 22 87 6 -949 -7 -452 -6 -478 12 -540 41
-138 132 -286 236 -382 143 -133 302 -200 514 -217 82 -7 696 -11 1685 -11
1481 0 1561 1 1647 19 184 38 329 114 451 235 96 97 146 181 175 297 26 103
45 127 86 110 16 -7 71 -54 123 -106 l94 -94 6 -99 c6 -105 15 -128 67 -177
70 -64 198 -74 275 -19 79 56 105 151 70 259 -14 43 -17 67 -10 85 11 29 189
212 234 240 24 16 47 19 105 18 52 -2 89 3 126 16 66 25 89 16 173 -69 l64
-65 1 -92 c1 -73 6 -102 22 -133 68 -130 212 -163 312 -71 67 62 86 150 57
261 -9 33 -10 59 -4 76 11 31 239 293 263 303 9 3 54 3 100 0 73 -6 88 -4 130
16 69 34 100 86 100 169 -1 126 -84 220 -209 237 -66 9 -146 -30 -179 -87 -34
-61 -39 -100 -22 -178 11 -46 13 -75 7 -92 -9 -23 -205 -252 -250 -292 -16
-15 -39 -20 -99 -21 -43 -2 -100 -6 -128 -10 l-50 -8 -76 65 c-85 73 -99 99
-99 187 0 132 -89 225 -215 225 -104 -1 -179 -62 -206 -168 -10 -41 -9 -58 6
-113 10 -38 14 -75 10 -91 -8 -34 -215 -246 -261 -268 -17 -8 -51 -15 -75 -15
-23 0 -68 -5 -99 -12 -31 -6 -67 -8 -80 -5 -32 8 -209 183 -216 214 -4 13 -1
51 5 83 20 99 -4 173 -78 245 -26 24 -46 55 -52 80 -8 28 -9 273 -4 839 l8
800 23 23 c26 26 10 26 286 13 118 -5 218 -14 230 -21 13 -6 46 -33 73 -59
122 -118 276 -196 440 -225 110 -19 170 -19 280 0 174 31 323 109 471 247 54
50 95 80 120 87 25 7 322 8 920 4 941 -7 938 -7 949 41 3 11 6 179 7 371 l3
350 29 53 29 53 -22 55 c-19 45 -25 83 -32 222 -4 92 -8 199 -9 238 0 94 -10
106 -96 115 -38 4 -91 17 -118 29 l-50 21 -60 -27 -60 -27 -1005 -8 c-2553
-21 -3173 -29 -3240 -45 -249 -57 -500 -242 -619 -454 -69 -122 -64 -32 -62
-1216 1 -1053 1 -1070 -18 -1095 l-20 -24 -260 -3 c-270 -3 -333 3 -348 36 -5
9 -11 245 -14 524 l-5 506 -25 27 c-14 15 -33 31 -43 37 -11 6 -184 9 -450 8
-362 0 -435 2 -452 14 -18 13 -20 28 -22 148 -1 105 -7 153 -26 229 -76 294
-276 497 -572 583 -84 24 -103 26 -306 26 -207 0 -217 1 -235 21 -18 20 -19
46 -24 453 -5 427 -5 431 -28 463 -53 75 -211 110 -352 79z m238 -95 c75 -39
73 -11 70 -715 -3 -613 -3 -625 -24 -652 -71 -96 -224 -110 -313 -29 l-36 33
-8 634 c-9 676 -8 694 39 724 60 40 199 43 272 5z m-688 -293 c79 -40 77 -29
83 -559 7 -535 10 -513 -79 -559 -39 -20 -63 -25 -125 -25 -90 0 -126 19 -146
76 -16 46 -18 991 -2 1020 6 12 34 31 62 45 69 32 146 32 207 2z m6482 -95
c10 -9 18 -26 18 -38 0 -13 -29 -170 -65 -351 -68 -346 -74 -394 -50 -414 16
-13 90 -25 458 -69 277 -33 283 -36 274 -113 -7 -57 -60 -174 -116 -257 -123
-181 -326 -308 -546 -341 -217 -33 -459 48 -622 207 -228 222 -296 589 -166
898 97 231 317 423 550 479 86 21 241 21 265 -1z m207 -38 c23 -8 73 -34 111
-59 77 -50 91 -76 67 -122 -24 -47 -331 -358 -348 -352 -25 8 -21 89 16 279
42 215 51 245 73 259 23 13 33 12 81 -5z m-7332 -260 c17 -7 36 -22 42 -33 12
-23 14 -265 3 -489 -6 -121 -10 -145 -27 -164 -68 -76 -251 -80 -300 -6 -14
23 -16 61 -13 334 2 218 7 314 15 329 12 21 47 39 93 48 39 7 152 -5 187 -19z
m7648 1 c31 -32 87 -144 115 -231 12 -38 24 -111 27 -160 7 -112 -2 -125 -80
-125 -50 0 -422 43 -480 56 -34 7 -52 37 -38 63 17 30 349 384 379 403 36 24
48 23 77 -6z m-4126 -1330 c17 -15 21 -31 21 -76 0 -65 -11 -80 -59 -80 -28 0
-43 -9 -76 -44 -97 -101 -141 -190 -151 -308 -9 -97 -26 -138 -57 -138 -27 0
-32 9 -66 127 -23 79 -54 113 -101 113 -40 0 -74 -40 -110 -128 -41 -102 -52
-123 -73 -136 -31 -19 -54 22 -61 106 -12 137 -18 165 -37 197 -15 25 -25 31
-54 31 -30 0 -44 -8 -83 -49 -26 -27 -69 -87 -96 -133 -125 -211 -136 -221
-229 -194 -154 45 -215 -12 -268 -250 -23 -103 -21 -154 6 -154 22 0 42 38 55
105 32 157 73 235 126 235 12 0 50 -7 84 -16 111 -28 157 1 250 161 59 101
100 155 118 155 27 0 43 -41 52 -140 11 -112 23 -141 71 -165 66 -35 36 -54
-291 -190 -113 -47 -213 -94 -224 -104 -12 -13 -16 -25 -11 -41 6 -19 12 -21
39 -17 17 3 198 75 403 161 204 86 380 156 390 156 11 0 37 -13 59 -30 69 -52
104 -39 144 55 28 65 44 81 111 115 63 32 84 53 75 75 -4 11 -20 15 -58 15
-75 0 -83 8 -81 79 2 78 37 151 111 232 94 101 106 78 101 -199 -1 -92 1 -295
6 -452 9 -343 6 -364 -58 -381 -30 -8 -245 -9 -796 -4 -695 7 -755 9 -771 25
-21 21 -28 204 -32 833 l-3 419 24 19 c22 18 44 19 320 20 163 1 429 5 591 9
162 4 379 7 481 6 169 -1 189 -3 208 -20z m-464 -569 c21 -33 30 -109 15 -136
-12 -24 -66 -51 -100 -51 -16 0 -20 7 -20 32 0 68 49 178 80 178 5 0 16 -10
25 -23z m4944 -672 c71 -36 104 -114 78 -178 -37 -88 -162 -87 -223 2 -26 38
-33 106 -14 141 24 45 105 63 159 35z m-1081 -212 c84 -53 79 -196 -8 -240
-87 -44 -193 26 -192 128 2 109 110 170 200 112z m-1155 -77 c44 -18 83 -66
91 -111 6 -28 2 -48 -16 -83 -31 -62 -67 -87 -126 -87 -62 0 -105 31 -128 90
-14 38 -15 51 -4 89 14 50 53 93 96 106 41 12 51 12 87 -4z m1687 -385 c86
-59 76 -209 -16 -247 -44 -18 -84 -8 -126 33 -114 109 14 302 142 214z m-1080
-200 c14 -9 33 -34 44 -55 24 -50 15 -99 -29 -143 -28 -28 -40 -33 -79 -33
-84 0 -146 55 -146 128 0 105 122 165 210 103z"/>
<path d="M13749 7781 c-115 -6 -129 -8 -167 -33 -72 -48 -72 -46 -78 -324 l-6
-249 -31 -60 -32 -60 25 -50 25 -50 5 -415 c6 -460 4 -446 74 -507 58 -52 91
-58 306 -58 184 0 198 2 242 23 49 24 98 76 120 128 8 20 14 120 18 319 5 276
6 292 28 332 28 53 28 69 0 135 -21 50 -23 72 -28 358 -5 294 -6 307 -28 352
-30 61 -99 122 -168 148 -57 21 -69 21 -305 11z"/>
<path d="M2052 7180 c-29 -10 -74 -22 -100 -25 -102 -14 -148 -33 -190 -79
-79 -86 -74 -42 -84 -791 -9 -648 -10 -672 -31 -723 l-21 -52 20 -28 c30 -40
156 -127 222 -153 51 -21 75 -23 217 -24 178 0 218 10 252 61 17 26 18 71 25
654 4 344 12 697 17 785 16 237 16 233 -22 269 -19 18 -59 39 -93 50 -32 10
-72 28 -89 41 -45 33 -65 36 -123 15z"/>
<path d="M2860 4974 c-144 -30 -262 -95 -365 -199 -80 -81 -126 -153 -161
-254 -89 -257 -27 -539 164 -742 88 -93 189 -159 310 -203 83 -30 94 -31 242
-31 148 0 159 1 241 31 241 86 422 296 464 538 18 107 18 158 1 257 -73 409
-490 691 -896 603z m293 -80 c206 -45 385 -189 472 -379 60 -130 68 -215 22
-236 -29 -13 -219 13 -252 35 -14 9 -39 45 -55 79 -57 119 -125 174 -255 201
-95 20 -99 25 -103 156 -4 106 -3 109 21 134 30 30 52 32 150 10z m-269 -36
c21 -34 30 -220 12 -261 -20 -48 -131 -130 -165 -122 -28 7 -186 137 -195 161
-14 37 -4 61 42 106 114 111 271 170 306 116z m-302 -379 c112 -94 118 -106
118 -206 0 -112 26 -181 94 -249 71 -70 144 -97 246 -92 129 7 227 73 286 191
40 78 50 87 106 87 74 0 190 -20 217 -37 21 -13 23 -21 19 -68 -3 -32 -18 -81
-40 -126 -108 -226 -325 -362 -578 -361 -305 0 -566 199 -656 498 -25 81 -25
247 0 329 39 132 67 138 188 34z m529 25 c109 -32 178 -140 166 -258 -22 -214
-279 -314 -425 -165 -48 48 -64 84 -70 154 -10 127 77 245 203 276 47 11 68
10 126 -7z"/>
</g>
</svg>
